<?xml version="1.0" encoding="UTF-8" standalone="no"?>
<!-- Created with Inkscape (http://www.inkscape.org/) -->

<svg
   xmlns:dc="http://purl.org/dc/elements/1.1/"
   xmlns:cc="http://creativecommons.org/ns#"
   xmlns:rdf="http://www.w3.org/1999/02/22-rdf-syntax-ns#"
   xmlns:svg="http://www.w3.org/2000/svg"
   xmlns="http://www.w3.org/2000/svg"
   xmlns:sodipodi="http://sodipodi.sourceforge.net/DTD/sodipodi-0.dtd"
   xmlns:inkscape="http://www.inkscape.org/namespaces/inkscape"
   width="280.70016mm"
   height="196.38765mm"
   viewBox="0 0 994.60688 695.86174"
   id="svg4431"
   version="1.1"
   inkscape:version="0.91 r13725"
   sodipodi:docname="plant_logo.svg"
   inkscape:export-filename="C:\Users\Hogan\Downloads\plant_logo.png"
   inkscape:export-xdpi="90"
   inkscape:export-ydpi="90">
  <defs
     id="defs4433">
    <inkscape:path-effect
       effect="powerstroke"
       id="path-effect5648"
       is_visible="true"
       offset_points="0,0.5"
       sort_points="true"
       interpolator_type="Linear"
       interpolator_beta="0.2"
       start_linecap_type="zerowidth"
       linejoin_type="round"
       miter_limit="4"
       end_linecap_type="zerowidth"
       cusp_linecap_type="round" />
    <inkscape:path-effect
       effect="powerstroke"
       id="path-effect5630"
       is_visible="true"
       offset_points="0,0.5"
       sort_points="true"
       interpolator_type="Linear"
       interpolator_beta="0.2"
       start_linecap_type="zerowidth"
       linejoin_type="round"
       miter_limit="4"
       end_linecap_type="zerowidth"
       cusp_linecap_type="round" />
    <inkscape:path-effect
       effect="powerstroke"
       id="path-effect5625"
       is_visible="true"
       offset_points="0,0.5"
       sort_points="true"
       interpolator_type="Linear"
       interpolator_beta="0.2"
       start_linecap_type="zerowidth"
       linejoin_type="round"
       miter_limit="4"
       end_linecap_type="zerowidth"
       cusp_linecap_type="round" />
    <inkscape:path-effect
       effect="powerstroke"
       id="path-effect5040"
       is_visible="true"
       offset_points="0,0.5"
       sort_points="true"
       interpolator_type="Linear"
       interpolator_beta="0.2"
       start_linecap_type="zerowidth"
       linejoin_type="round"
       miter_limit="4"
       end_linecap_type="zerowidth"
       cusp_linecap_type="round" />
    <inkscape:path-effect
       effect="powerstroke"
       id="path-effect5036"
       is_visible="true"
       offset_points="0,0.5"
       sort_points="true"
       interpolator_type="Linear"
       interpolator_beta="0.2"
       start_linecap_type="zerowidth"
       linejoin_type="round"
       miter_limit="4"
       end_linecap_type="zerowidth"
       cusp_linecap_type="round" />
    <inkscape:path-effect
       effect="powerstroke"
       id="path-effect5028"
       is_visible="true"
       offset_points="0,0.5"
       sort_points="true"
       interpolator_type="Linear"
       interpolator_beta="0.2"
       start_linecap_type="zerowidth"
       linejoin_type="round"
       miter_limit="4"
       end_linecap_type="zerowidth"
       cusp_linecap_type="round" />
    <inkscape:path-effect
       effect="powerstroke"
       id="path-effect5024"
       is_visible="true"
       offset_points="0,0.5"
       sort_points="true"
       interpolator_type="Linear"
       interpolator_beta="0.2"
       start_linecap_type="zerowidth"
       linejoin_type="round"
       miter_limit="4"
       end_linecap_type="zerowidth"
       cusp_linecap_type="round" />
    <inkscape:path-effect
       effect="powerstroke"
       id="path-effect4480"
       is_visible="true"
       offset_points="0,0.5"
       sort_points="true"
       interpolator_type="Linear"
       interpolator_beta="0.2"
       start_linecap_type="zerowidth"
       linejoin_type="round"
       miter_limit="4"
       end_linecap_type="zerowidth"
       cusp_linecap_type="round" />
    <inkscape:path-effect
       effect="powerstroke"
       id="path-effect4476"
       is_visible="true"
       offset_points="0,0.5"
       sort_points="true"
       interpolator_type="Linear"
       interpolator_beta="0.2"
       start_linecap_type="zerowidth"
       linejoin_type="round"
       miter_limit="4"
       end_linecap_type="zerowidth"
       cusp_linecap_type="round" />
    <inkscape:path-effect
       effect="powerstroke"
       id="path-effect4472"
       is_visible="true"
       offset_points="0,0.5"
       sort_points="true"
       interpolator_type="Linear"
       interpolator_beta="0.2"
       start_linecap_type="zerowidth"
       linejoin_type="round"
       miter_limit="4"
       end_linecap_type="zerowidth"
       cusp_linecap_type="round" />
    <inkscape:path-effect
       effect="powerstroke"
       id="path-effect4468"
       is_visible="true"
       offset_points="0,0.5"
       sort_points="true"
       interpolator_type="Linear"
       interpolator_beta="0.2"
       start_linecap_type="zerowidth"
       linejoin_type="round"
       miter_limit="4"
       end_linecap_type="zerowidth"
       cusp_linecap_type="round" />
    <inkscape:path-effect
       effect="spiro"
       id="path-effect4466"
       is_visible="true" />
    <inkscape:path-effect
       effect="powerstroke"
       id="path-effect4462"
       is_visible="true"
       offset_points="0,0.5"
       sort_points="true"
       interpolator_type="Linear"
       interpolator_beta="0.2"
       start_linecap_type="zerowidth"
       linejoin_type="round"
       miter_limit="4"
       end_linecap_type="zerowidth"
       cusp_linecap_type="round" />
    <inkscape:path-effect
       effect="spiro"
       id="path-effect4460"
       is_visible="true" />
    <inkscape:path-effect
       effect="powerstroke"
       id="path-effect4456"
       is_visible="true"
       offset_points="0,0.5"
       sort_points="true"
       interpolator_type="Linear"
       interpolator_beta="0.2"
       start_linecap_type="zerowidth"
       linejoin_type="round"
       miter_limit="4"
       end_linecap_type="zerowidth"
       cusp_linecap_type="round" />
    <inkscape:path-effect
       effect="spiro"
       id="path-effect4454"
       is_visible="true" />
  </defs>
  <sodipodi:namedview
     id="base"
     pagecolor="#ffffff"
     bordercolor="#666666"
     borderopacity="1.0"
     inkscape:pageopacity="0.0"
     inkscape:pageshadow="2"
     inkscape:zoom="0.56578836"
     inkscape:cx="-63.311579"
     inkscape:cy="297.31855"
     inkscape:document-units="px"
     inkscape:current-layer="layer1"
     showgrid="false"
     inkscape:window-width="1920"
     inkscape:window-height="1017"
     inkscape:window-x="-8"
     inkscape:window-y="-8"
     inkscape:window-maximized="1"
     inkscape:snap-nodes="false"
     showguides="false"
     fit-margin-top="0"
     fit-margin-left="0"
     fit-margin-right="0"
     fit-margin-bottom="0" />
  <metadata
     id="metadata4436">
    <rdf:RDF>
      <cc:Work
         rdf:about="">
        <dc:format>image/svg+xml</dc:format>
        <dc:type
           rdf:resource="http://purl.org/dc/dcmitype/StillImage" />
        <dc:title></dc:title>
      </cc:Work>
    </rdf:RDF>
  </metadata>
  <g
     inkscape:label="Layer 1"
     inkscape:groupmode="layer"
     id="layer1"
     transform="translate(-32.930582,-330.83719)"
     style="display:inline;opacity:1">
    <path
       style="color:#000000;font-style:normal;font-variant:normal;font-weight:normal;font-stretch:normal;font-size:medium;line-height:normal;font-family:sans-serif;text-indent:0;text-align:start;text-decoration:none;text-decoration-line:none;text-decoration-style:solid;text-decoration-color:#000000;letter-spacing:normal;word-spacing:normal;text-transform:none;direction:ltr;block-progression:tb;writing-mode:lr-tb;baseline-shift:baseline;text-anchor:start;white-space:normal;clip-rule:nonzero;display:inline;overflow:visible;visibility:visible;opacity:1;isolation:auto;mix-blend-mode:normal;color-interpolation:sRGB;color-interpolation-filters:linearRGB;solid-color:#000000;solid-opacity:1;fill:#000000;fill-opacity:1;fill-rule:nonzero;stroke:none;stroke-width:2.2801373;stroke-linecap:butt;stroke-linejoin:miter;stroke-miterlimit:4.0999999;stroke-dasharray:none;stroke-dashoffset:0;stroke-opacity:1;color-rendering:auto;image-rendering:auto;shape-rendering:auto;text-rendering:auto;enable-background:accumulate"
       d="m 339.92663,330.91201 c -23.84798,0.42491 -41.90852,2.77804 -57.83382,9.93139 -21.23379,9.53775 -34.95542,25.92806 -53.04904,51.61281 -18.09365,25.6848 -40.95817,61.70286 -79.11904,113.25676 -38.16102,51.55397 -66.686505,84.98257 -86.154396,110.04184 -19.467985,25.05933 -30.810457,42.53102 -30.839707,61.71865 -0.02605,19.18759 11.254601,36.70626 30.645944,61.86815 19.391108,25.16185 47.823119,58.73568 85.826419,110.49045 38.00328,51.75486 60.76106,87.87553 78.77624,113.65547 18.01511,25.78009 31.68074,42.23727 52.88514,51.88707 21.20461,9.6498 46.21006,10.7906 83.69493,10.2677 59.59065,-11.1921 116.33141,-21.3889 164.94561,-22.6753 67.60777,1.4241 105.49431,21.8628 164.94557,23.547 37.48298,0.7207 62.47607,-0.2933 83.70987,-9.8315 21.23369,-9.5379 34.95544,-25.91574 53.04908,-51.60049 18.09365,-25.6847 40.95795,-61.69033 79.11897,-113.24429 38.16109,-51.55393 66.70137,-84.98249 86.16934,-110.04184 19.46776,-25.05937 30.81046,-42.53093 30.83966,-61.7186 0.026,-19.18766 -11.2696,-36.70644 -30.66077,-61.86821 C 977.48539,593.04714 949.06825,559.46098 911.065,507.70615 873.0618,455.9513 850.30382,419.84309 832.28878,394.06317 814.27361,368.28312 800.60816,351.801 779.40377,342.15122 758.1992,332.50145 733.17879,331.36049 695.6938,331.88346 c -37.48479,0.52318 -88.7813,2.95478 -164.94554,2.7539 -76.16429,-0.20076 -127.41778,-2.89304 -164.90078,-3.61369 -9.37072,-0.17995 -17.97157,-0.25372 -25.92085,-0.11238 z m 1.02845,22.08066 c 7.12782,-0.14347 15.15844,-0.11239 24.25148,0.0638 36.37201,0.69939 88.55783,3.42303 165.52681,3.62608 76.9689,0.20266 129.13798,-2.24641 165.51189,-2.75381 36.37385,-0.5072 55.61583,1.17238 69.05773,7.28952 13.44204,6.11734 24.82102,18.37286 42.30218,43.38879 17.48121,25.01598 40.6545,61.75258 79.05934,114.05421 38.40477,52.30173 67.30824,86.48553 86.12464,110.90166 18.81656,24.41616 26.62516,38.29058 26.60659,50.454 -0.0138,12.16343 -7.86475,26.00029 -26.75562,50.31695 -18.89092,24.3166 -47.88842,58.32958 -86.45258,110.42815 -38.56421,52.09864 -61.85978,88.71964 -79.41715,113.64305 -17.55742,24.92344 -28.99051,37.13062 -42.45118,43.17692 C 691.9572,1023.8006 612.97488,983.1933 550.14048,982.67871 527.85755,914.91657 606.7818,867.54035 606.7818,867.54035 c 37.94127,6.96167 173.02381,44.67818 217.83061,-154.48973 -232.88405,-20.99715 -257.09038,77.97218 -246.85179,125.31889 31.0446,-31.5694 83.61947,-54.66587 145.8067,-79.81186 C 577.75991,838.36318 572.84504,863.33287 538.63337,908.12537 L 498.79059,753.33654 C 638.8216,744.62905 671.99565,642.72967 629.19981,578.14934 588.25627,516.36375 525.49668,456.4848 553.31539,385.32998 243.37794,481.07018 263.78113,728.0996 447.06814,750.98146 431.46291,619.1705 428.56914,556.04237 486.52335,466.97359 c -43.69018,71.8643 -35.92533,173.38714 -23.38694,256.4071 15.93671,105.52149 39.96656,178.2041 28.03743,258.86187 C 428.38549,981.76468 356.8328,1023.1663 295.165,996.3358 281.72304,990.21858 270.34399,977.96297 252.86288,952.94704 235.38191,927.93112 212.1934,891.1944 173.78869,838.89281 135.38379,786.59118 106.48048,752.39471 87.664047,727.97863 68.847441,703.56262 61.053952,689.70062 61.072453,677.53709 c 0.01404,-12.16332 7.864656,-26.00031 26.7555,-50.31696 18.890947,-24.31666 47.888447,-58.35435 86.452587,-110.45302 38.56434,-52.09853 61.8449,-88.70702 79.40221,-113.63056 17.55738,-24.9234 29.00556,-37.11823 42.4661,-43.16446 10.09539,-4.53466 23.42277,-6.54768 44.80623,-6.97805 z"
       id="path5650"
       inkscape:connector-curvature="0"
       sodipodi:nodetypes="ssssscsssscccsssscssssssssscsssssscsssscccccccscccscccsscssssscc"
       inkscape:export-xdpi="90"
       inkscape:export-ydpi="90" />
  </g>
  <g
     inkscape:groupmode="layer"
     id="layer2"
     inkscape:label="Layer 2"
     style="opacity:0.54000005"
     transform="translate(-32.930582,-22.569474)" />
</svg>
